<svg xmlns="http://www.w3.org/2000/svg" viewBox="0 0 512 512" width="512" height="512">
  <rect width="512" height="512" fill="#5B294A"/>
  <g transform="translate(136, 120) scale(7.5)" fill="none">
    <path
      d="M6.5 3.5C5.1 3.5 4 4.6 4 6V26C4 27.4 5.1 28.5 6.5 28.5H25.5C26.9 28.5 28 27.4 28 26V11.5L20 3.5H6.5Z"
      fill="#FCF9F3"
      fill-opacity="0.22"
      stroke="#FCF9F3"
      stroke-width="2.25"
      stroke-linejoin="round"
    />
    <path
      d="M20 3.5V11C20 11.55 20.45 12 21 12H28"
      stroke="#FCF9F3"
      stroke-width="2.25"
      stroke-linecap="round"
      stroke-linejoin="round"
    />
    <path
      d="M22 14C20.5 12.8 18 12.2 15.5 12.8C12.5 13.5 10.5 15.5 10.8 17.8C11.2 20.2 14.5 21.2 17.5 21.8C20.8 22.5 22.8 23.8 22.5 25.5C22 27.2 19 28 16 27.5C13.2 27 11.2 25.8 10.5 24.5"
      stroke="#FCF9F3"
      stroke-width="2.4"
      stroke-linecap="round"
      stroke-linejoin="round"
    />
  </g>
</svg>